<?xml version="1.0" encoding="UTF-8"?>
<!DOCTYPE svg PUBLIC "-//W3C//DTD SVG 1.1//EN" "http://www.w3.org/Graphics/SVG/1.1/DTD/svg11.dtd">
<svg width="138mm" height="109mm" viewBox="0 0 13800 10900" version="1.1" xmlns="http://www.w3.org/2000/svg" xmlns:xlink="http://www.w3.org/1999/xlink" stroke-width="28.222" stroke-linejoin="round" xml:space="preserve">
 <path fill="rgb(255,255,255)" stroke="none" d="M 6915,10934 L 0,10934 0,0 13829,0 13829,10934 6915,10934 Z"/>
 <path fill="none" stroke="rgb(179,179,179)" stroke-linejoin="round" d="M 7688,8986 L 2015,8986 2015,3345 13361,3345 13361,8986 7688,8986 Z"/>
 <path fill="none" stroke="rgb(179,179,179)" stroke-linejoin="round" d="M 13361,8985 L 2015,8985"/>
 <path fill="none" stroke="rgb(179,179,179)" stroke-linejoin="round" d="M 13361,7856 L 2015,7856"/>
 <path fill="none" stroke="rgb(179,179,179)" stroke-linejoin="round" d="M 13361,6728 L 2015,6728"/>
 <path fill="none" stroke="rgb(179,179,179)" stroke-linejoin="round" d="M 13361,5599 L 2015,5599"/>
 <path fill="none" stroke="rgb(179,179,179)" stroke-linejoin="round" d="M 13361,4472 L 2015,4472"/>
 <path fill="none" stroke="rgb(179,179,179)" stroke-linejoin="round" d="M 13361,3344 L 2015,3344"/>
 <path fill="none" stroke="rgb(179,179,179)" stroke-linejoin="round" d="M 2015,9135 L 2015,8985"/>
 <path fill="none" stroke="rgb(179,179,179)" stroke-linejoin="round" d="M 2015,9135 L 2015,8985"/>
 <path fill="none" stroke="rgb(179,179,179)" stroke-linejoin="round" d="M 3275,9135 L 3275,8985"/>
 <path fill="none" stroke="rgb(179,179,179)" stroke-linejoin="round" d="M 3275,9135 L 3275,8985"/>
 <path fill="none" stroke="rgb(179,179,179)" stroke-linejoin="round" d="M 4536,9135 L 4536,8985"/>
 <path fill="none" stroke="rgb(179,179,179)" stroke-linejoin="round" d="M 4536,9135 L 4536,8985"/>
 <path fill="none" stroke="rgb(179,179,179)" stroke-linejoin="round" d="M 5797,9135 L 5797,8985"/>
 <path fill="none" stroke="rgb(179,179,179)" stroke-linejoin="round" d="M 5797,9135 L 5797,8985"/>
 <path fill="none" stroke="rgb(179,179,179)" stroke-linejoin="round" d="M 7057,9135 L 7057,8985"/>
 <path fill="none" stroke="rgb(179,179,179)" stroke-linejoin="round" d="M 7057,9135 L 7057,8985"/>
 <path fill="none" stroke="rgb(179,179,179)" stroke-linejoin="round" d="M 8317,9135 L 8317,8985"/>
 <path fill="none" stroke="rgb(179,179,179)" stroke-linejoin="round" d="M 8317,9135 L 8317,8985"/>
 <path fill="none" stroke="rgb(179,179,179)" stroke-linejoin="round" d="M 9578,9135 L 9578,8985"/>
 <path fill="none" stroke="rgb(179,179,179)" stroke-linejoin="round" d="M 9578,9135 L 9578,8985"/>
 <path fill="none" stroke="rgb(179,179,179)" stroke-linejoin="round" d="M 10839,9135 L 10839,8985"/>
 <path fill="none" stroke="rgb(179,179,179)" stroke-linejoin="round" d="M 10839,9135 L 10839,8985"/>
 <path fill="none" stroke="rgb(179,179,179)" stroke-linejoin="round" d="M 12100,9135 L 12100,8985"/>
 <path fill="none" stroke="rgb(179,179,179)" stroke-linejoin="round" d="M 12100,9135 L 12100,8985"/>
 <path fill="none" stroke="rgb(179,179,179)" stroke-linejoin="round" d="M 13361,9135 L 13361,8985"/>
 <path fill="none" stroke="rgb(179,179,179)" stroke-linejoin="round" d="M 13361,9135 L 13361,8985"/>
 <path fill="none" stroke="rgb(179,179,179)" stroke-linejoin="round" d="M 2015,8985 L 13361,8985"/>
 <path fill="none" stroke="rgb(179,179,179)" stroke-linejoin="round" d="M 1865,8985 L 2015,8985"/>
 <path fill="none" stroke="rgb(179,179,179)" stroke-linejoin="round" d="M 1865,8985 L 2015,8985"/>
 <path fill="none" stroke="rgb(179,179,179)" stroke-linejoin="round" d="M 1865,7856 L 2015,7856"/>
 <path fill="none" stroke="rgb(179,179,179)" stroke-linejoin="round" d="M 1865,7856 L 2015,7856"/>
 <path fill="none" stroke="rgb(179,179,179)" stroke-linejoin="round" d="M 1865,6728 L 2015,6728"/>
 <path fill="none" stroke="rgb(179,179,179)" stroke-linejoin="round" d="M 1865,6728 L 2015,6728"/>
 <path fill="none" stroke="rgb(179,179,179)" stroke-linejoin="round" d="M 1865,5599 L 2015,5599"/>
 <path fill="none" stroke="rgb(179,179,179)" stroke-linejoin="round" d="M 1865,5599 L 2015,5599"/>
 <path fill="none" stroke="rgb(179,179,179)" stroke-linejoin="round" d="M 1865,4472 L 2015,4472"/>
 <path fill="none" stroke="rgb(179,179,179)" stroke-linejoin="round" d="M 1865,4472 L 2015,4472"/>
 <path fill="none" stroke="rgb(179,179,179)" stroke-linejoin="round" d="M 1865,3344 L 2015,3344"/>
 <path fill="none" stroke="rgb(179,179,179)" stroke-linejoin="round" d="M 1865,3344 L 2015,3344"/>
 <path fill="none" stroke="rgb(179,179,179)" stroke-linejoin="round" d="M 2015,8985 L 2015,3344"/>
 <path fill="none" stroke="rgb(0,69,134)" stroke-width="80" stroke-linejoin="round" d="M 2645,8495 L 3275,8018 3906,7579 4536,7110 5166,6698 5797,6247 6427,5858 7057,5534 7687,5268 8317,4942 8948,4598 9578,4292 10209,4068 10839,3961 11469,3950 12100,4839"/>
 <path fill="rgb(0,69,134)" stroke="none" d="M 2520,8370 L 2520,8620 2770,8620 2770,8370 2520,8370 Z"/>
 <path fill="none" stroke="rgb(0,69,134)" stroke-linejoin="round" d="M 2520,8370 L 2520,8620 2770,8620 2770,8370 2520,8370 Z"/>
 <path fill="rgb(0,69,134)" stroke="none" d="M 3150,7893 L 3150,8143 3400,8143 3400,7893 3150,7893 Z"/>
 <path fill="none" stroke="rgb(0,69,134)" stroke-linejoin="round" d="M 3150,7893 L 3150,8143 3400,8143 3400,7893 3150,7893 Z"/>
 <path fill="rgb(0,69,134)" stroke="none" d="M 3781,7454 L 3781,7704 4031,7704 4031,7454 3781,7454 Z"/>
 <path fill="none" stroke="rgb(0,69,134)" stroke-linejoin="round" d="M 3781,7454 L 3781,7704 4031,7704 4031,7454 3781,7454 Z"/>
 <path fill="rgb(0,69,134)" stroke="none" d="M 4411,6985 L 4411,7235 4661,7235 4661,6985 4411,6985 Z"/>
 <path fill="none" stroke="rgb(0,69,134)" stroke-linejoin="round" d="M 4411,6985 L 4411,7235 4661,7235 4661,6985 4411,6985 Z"/>
 <path fill="rgb(0,69,134)" stroke="none" d="M 5041,6573 L 5041,6823 5291,6823 5291,6573 5041,6573 Z"/>
 <path fill="none" stroke="rgb(0,69,134)" stroke-linejoin="round" d="M 5041,6573 L 5041,6823 5291,6823 5291,6573 5041,6573 Z"/>
 <path fill="rgb(0,69,134)" stroke="none" d="M 5672,6122 L 5672,6372 5922,6372 5922,6122 5672,6122 Z"/>
 <path fill="none" stroke="rgb(0,69,134)" stroke-linejoin="round" d="M 5672,6122 L 5672,6372 5922,6372 5922,6122 5672,6122 Z"/>
 <path fill="rgb(0,69,134)" stroke="none" d="M 6302,5733 L 6302,5983 6552,5983 6552,5733 6302,5733 Z"/>
 <path fill="none" stroke="rgb(0,69,134)" stroke-linejoin="round" d="M 6302,5733 L 6302,5983 6552,5983 6552,5733 6302,5733 Z"/>
 <path fill="rgb(0,69,134)" stroke="none" d="M 6932,5410 L 6932,5659 7182,5659 7182,5410 6932,5410 Z"/>
 <path fill="none" stroke="rgb(0,69,134)" stroke-linejoin="round" d="M 6932,5410 L 6932,5659 7182,5659 7182,5410 6932,5410 Z"/>
 <path fill="rgb(0,69,134)" stroke="none" d="M 7562,5143 L 7562,5393 7812,5393 7812,5143 7562,5143 Z"/>
 <path fill="none" stroke="rgb(0,69,134)" stroke-linejoin="round" d="M 7562,5143 L 7562,5393 7812,5393 7812,5143 7562,5143 Z"/>
 <path fill="rgb(0,69,134)" stroke="none" d="M 8192,4817 L 8192,5067 8442,5067 8442,4817 8192,4817 Z"/>
 <path fill="none" stroke="rgb(0,69,134)" stroke-linejoin="round" d="M 8192,4817 L 8192,5067 8442,5067 8442,4817 8192,4817 Z"/>
 <path fill="rgb(0,69,134)" stroke="none" d="M 8823,4473 L 8823,4723 9073,4723 9073,4473 8823,4473 Z"/>
 <path fill="none" stroke="rgb(0,69,134)" stroke-linejoin="round" d="M 8823,4473 L 8823,4723 9073,4723 9073,4473 8823,4473 Z"/>
 <path fill="rgb(0,69,134)" stroke="none" d="M 9453,4167 L 9453,4417 9703,4417 9703,4167 9453,4167 Z"/>
 <path fill="none" stroke="rgb(0,69,134)" stroke-linejoin="round" d="M 9453,4167 L 9453,4417 9703,4417 9703,4167 9453,4167 Z"/>
 <path fill="rgb(0,69,134)" stroke="none" d="M 10084,3943 L 10084,4193 10334,4193 10334,3943 10084,3943 Z"/>
 <path fill="none" stroke="rgb(0,69,134)" stroke-linejoin="round" d="M 10084,3943 L 10084,4193 10334,4193 10334,3943 10084,3943 Z"/>
 <path fill="rgb(0,69,134)" stroke="none" d="M 10714,3836 L 10714,4086 10964,4086 10964,3836 10714,3836 Z"/>
 <path fill="none" stroke="rgb(0,69,134)" stroke-linejoin="round" d="M 10714,3836 L 10714,4086 10964,4086 10964,3836 10714,3836 Z"/>
 <path fill="rgb(0,69,134)" stroke="none" d="M 11344,3825 L 11344,4075 11594,4075 11594,3825 11344,3825 Z"/>
 <path fill="none" stroke="rgb(0,69,134)" stroke-linejoin="round" d="M 11344,3825 L 11344,4075 11594,4075 11594,3825 11344,3825 Z"/>
 <path fill="rgb(0,69,134)" stroke="none" d="M 11975,4714 L 11975,4964 12225,4964 12225,4714 11975,4714 Z"/>
 <path fill="none" stroke="rgb(0,69,134)" stroke-linejoin="round" d="M 11975,4714 L 11975,4964 12225,4964 12225,4714 11975,4714 Z"/>
 <text class="SVGTextShape"><tspan class="TextParagraph" font-family="Liberation Sans, sans-serif" font-size="353px" font-weight="400"><tspan class="TextPosition" x="1919" y="9553"><tspan fill="rgb(0,0,0)" stroke="none">0</tspan></tspan></tspan></text>
 <text class="SVGTextShape"><tspan class="TextParagraph" font-family="Liberation Sans, sans-serif" font-size="353px" font-weight="400"><tspan class="TextPosition" x="3179" y="9553"><tspan fill="rgb(0,0,0)" stroke="none">2</tspan></tspan></tspan></text>
 <text class="SVGTextShape"><tspan class="TextParagraph" font-family="Liberation Sans, sans-serif" font-size="353px" font-weight="400"><tspan class="TextPosition" x="4440" y="9553"><tspan fill="rgb(0,0,0)" stroke="none">4</tspan></tspan></tspan></text>
 <text class="SVGTextShape"><tspan class="TextParagraph" font-family="Liberation Sans, sans-serif" font-size="353px" font-weight="400"><tspan class="TextPosition" x="5701" y="9553"><tspan fill="rgb(0,0,0)" stroke="none">6</tspan></tspan></tspan></text>
 <text class="SVGTextShape"><tspan class="TextParagraph" font-family="Liberation Sans, sans-serif" font-size="353px" font-weight="400"><tspan class="TextPosition" x="6962" y="9553"><tspan fill="rgb(0,0,0)" stroke="none">8</tspan></tspan></tspan></text>
 <text class="SVGTextShape"><tspan class="TextParagraph" font-family="Liberation Sans, sans-serif" font-size="353px" font-weight="400"><tspan class="TextPosition" x="8127" y="9553"><tspan fill="rgb(0,0,0)" stroke="none">10</tspan></tspan></tspan></text>
 <text class="SVGTextShape"><tspan class="TextParagraph" font-family="Liberation Sans, sans-serif" font-size="353px" font-weight="400"><tspan class="TextPosition" x="9388" y="9553"><tspan fill="rgb(0,0,0)" stroke="none">12</tspan></tspan></tspan></text>
 <text class="SVGTextShape"><tspan class="TextParagraph" font-family="Liberation Sans, sans-serif" font-size="353px" font-weight="400"><tspan class="TextPosition" x="10649" y="9553"><tspan fill="rgb(0,0,0)" stroke="none">14</tspan></tspan></tspan></text>
 <text class="SVGTextShape"><tspan class="TextParagraph" font-family="Liberation Sans, sans-serif" font-size="353px" font-weight="400"><tspan class="TextPosition" x="11910" y="9553"><tspan fill="rgb(0,0,0)" stroke="none">16</tspan></tspan></tspan></text>
 <text class="SVGTextShape"><tspan class="TextParagraph" font-family="Liberation Sans, sans-serif" font-size="353px" font-weight="400"><tspan class="TextPosition" x="13171" y="9553"><tspan fill="rgb(0,0,0)" stroke="none">18</tspan></tspan></tspan></text>
 <text class="SVGTextShape"><tspan class="TextParagraph" font-family="Liberation Sans, sans-serif" font-size="353px" font-weight="400"><tspan class="TextPosition" x="1574" y="9103"><tspan fill="rgb(0,0,0)" stroke="none">0</tspan></tspan></tspan></text>
 <text class="SVGTextShape"><tspan class="TextParagraph" font-family="Liberation Sans, sans-serif" font-size="353px" font-weight="400"><tspan class="TextPosition" x="1574" y="7974"><tspan fill="rgb(0,0,0)" stroke="none">5</tspan></tspan></tspan></text>
 <text class="SVGTextShape"><tspan class="TextParagraph" font-family="Liberation Sans, sans-serif" font-size="353px" font-weight="400"><tspan class="TextPosition" x="1384" y="6846"><tspan fill="rgb(0,0,0)" stroke="none">10</tspan></tspan></tspan></text>
 <text class="SVGTextShape"><tspan class="TextParagraph" font-family="Liberation Sans, sans-serif" font-size="353px" font-weight="400"><tspan class="TextPosition" x="1384" y="5717"><tspan fill="rgb(0,0,0)" stroke="none">15</tspan></tspan></tspan></text>
 <text class="SVGTextShape"><tspan class="TextParagraph" font-family="Liberation Sans, sans-serif" font-size="353px" font-weight="400"><tspan class="TextPosition" x="1384" y="4589"><tspan fill="rgb(0,0,0)" stroke="none">20</tspan></tspan></tspan></text>
 <text class="SVGTextShape"><tspan class="TextParagraph" font-family="Liberation Sans, sans-serif" font-size="353px" font-weight="400"><tspan class="TextPosition" x="1384" y="3461"><tspan fill="rgb(0,0,0)" stroke="none">25</tspan></tspan></tspan></text>
 <text class="SVGTextShape"><tspan class="TextParagraph" font-family="Liberation Sans, sans-serif" font-size="459px" font-weight="400"><tspan class="TextPosition" x="1877" y="914"><tspan fill="rgb(0,0,0)" stroke="none">Throughput scaling for CRC32C computed over a </tspan></tspan><tspan class="TextPosition" x="3549" y="1443"><tspan fill="rgb(0,0,0)" stroke="none">512 MiB message with slice-by-8</tspan></tspan></tspan></text>
 <text class="SVGTextShape"><tspan class="TextParagraph" font-family="Liberation Sans, sans-serif" font-size="353px" font-weight="400"><tspan class="TextPosition" x="1803" y="2330"><tspan fill="rgb(0,0,0)" stroke="none">Windows 10, Intel Core i7-10700K (3.80 GHz, 8 cores, 16 logical </tspan></tspan><tspan class="TextPosition" x="5963" y="2733"><tspan fill="rgb(0,0,0)" stroke="none">processors)</tspan></tspan></tspan></text>
 <text class="SVGTextShape"><tspan class="TextParagraph" font-family="Liberation Sans, sans-serif" font-size="388px" font-weight="400"><tspan class="TextPosition" x="6769" y="10313"><tspan fill="rgb(0,0,0)" stroke="none">Threads</tspan></tspan></tspan></text>
 <text class="SVGTextShape" transform="rotate(-90 906 6856)"><tspan class="TextParagraph" font-family="Liberation Sans, sans-serif" font-size="388px" font-weight="400"><tspan class="TextPosition" x="906" y="6856"><tspan fill="rgb(0,0,0)" stroke="none">GiB/s</tspan></tspan></tspan></text>
</svg>